<svg width="225" height="225" viewBox="0 0 225 225" fill="none" xmlns="http://www.w3.org/2000/svg">
<g id="bootstrap-4 1">
<path id="Vector" d="M0 195.988C0 212.012 12.9894 225 29.0118 225H195.987C212.012 225 225 212.011 225 195.988V29.0127C225 12.9876 212.011 0 195.988 0H29.0127C12.9876 0 0 12.9894 0 29.0118V195.987V195.988Z" fill="#563D7C"/>
<path id="Vector_2" d="M93.303 99.5256V67.6626H121.35C124.022 67.6626 126.597 67.885 129.077 68.3306C131.557 68.7753 133.752 69.5698 135.66 70.715C137.567 71.8603 139.094 73.4502 140.239 75.4849C141.384 77.5204 141.957 80.1281 141.957 83.3071C141.957 89.0314 140.239 93.1658 136.804 95.7094C133.371 98.2538 128.982 99.5256 123.639 99.5256H93.303V99.5256ZM63.3472 44.3848V180.615H129.364C135.469 180.615 141.416 179.852 147.204 178.326C152.991 176.799 158.143 174.446 162.658 171.266C167.173 168.086 170.767 163.984 173.438 158.96C176.11 153.935 177.445 147.988 177.445 141.12C177.445 132.597 175.378 125.315 171.244 119.274C167.11 113.231 160.845 109.002 152.45 106.585C158.556 103.66 163.167 99.907 166.284 95.3279C169.4 90.7488 170.958 85.0254 170.958 78.1559C170.958 71.7961 169.909 66.4541 167.81 62.129C165.711 57.8048 162.753 54.3384 158.937 51.7307C155.122 49.123 150.543 47.2465 145.2 46.1021C139.858 44.9569 133.943 44.3848 127.456 44.3848H63.3472V44.3848ZM93.303 157.337V119.941H125.929C132.416 119.941 137.632 121.435 141.575 124.425C145.518 127.414 147.49 132.406 147.49 139.402C147.49 142.965 146.886 145.89 145.677 148.179C144.469 150.469 142.847 152.282 140.811 153.617C138.777 154.953 136.423 155.907 133.752 156.48C131.08 157.051 128.283 157.337 125.357 157.337H93.303V157.337Z" fill="white"/>
</g>
</svg>
