<svg width="225" height="225" viewBox="0 0 225 225" fill="none" xmlns="http://www.w3.org/2000/svg">
<g clip-path="url(#clip0)">
<path d="M220.757 102.475L122.52 4.24338C116.866 -1.41414 107.69 -1.41414 102.029 4.24338L81.6293 24.6428L107.507 50.5204C113.52 48.4884 120.416 49.8516 125.21 54.6451C130.026 59.4695 131.38 66.4242 129.299 72.4571L154.237 97.3969C160.271 95.3183 167.233 96.663 172.052 101.49C178.787 108.222 178.787 119.134 172.052 125.871C165.315 132.609 154.404 132.609 147.663 125.871C142.597 120.8 141.346 113.36 143.91 107.118L120.653 83.8609L120.65 145.065C122.336 145.899 123.876 147 125.21 148.326C131.945 155.058 131.945 165.971 125.21 172.713C118.473 179.447 107.556 179.447 100.829 172.713C94.0939 165.971 94.0939 155.059 100.829 148.327C102.443 146.712 104.361 145.433 106.472 144.564V82.7895C104.358 81.9263 102.439 80.6468 100.829 79.0269C95.7261 73.931 94.4991 66.4436 97.1139 60.1779L71.6045 34.6658L4.24512 102.021C-1.41504 107.684 -1.41504 116.86 4.24512 122.519L102.484 220.752C108.14 226.411 117.314 226.411 122.977 220.752L220.756 122.975C226.414 117.315 226.414 108.133 220.756 102.475" fill="#DE4C36"/>
</g>
<defs>
<clipPath id="clip0">
<rect width="225" height="225" fill="white"/>
</clipPath>
</defs>
</svg>
