<svg width="225" height="225" viewBox="0 0 225 225" fill="none" xmlns="http://www.w3.org/2000/svg">
<g id="html5-with-wordmark-color 1">
<g id="Group">
<g id="Group_2">
<g id="Group_3">
<path id="Vector" d="M47.6288 0H57.77V10.0195H67.0469V0H77.1886V30.3416H67.0473V20.1814H57.7705V30.3416H47.6292L47.6288 0Z" fill="black"/>
<path id="Vector_2" d="M90.5247 10.0617H81.5967V0H109.599V10.0617H100.667V30.3416H90.5251L90.5247 10.0617Z" fill="black"/>
<path id="Vector_3" d="M114.043 0H124.617L131.122 10.6611L137.62 0H148.199V30.3416H138.099V15.3026L131.122 26.0908H130.948L123.966 15.3026V30.3416H114.043V0V0Z" fill="black"/>
<path id="Vector_4" d="M153.246 0H163.39V20.3124H177.652V30.3416H153.246V0Z" fill="black"/>
</g>
</g>
</g>
<g id="Guides to delete">
<g id="Group_4">
<path id="Vector_5" d="M47.0764 206.862L32.5248 43.6364H192.35L177.78 206.875L112.398 225L47.0764 206.862Z" fill="#E34E26"/>
<path id="Vector_6" d="M112.437 56.9782V211.135L165.306 196.48L177.763 56.9782H112.437Z" fill="#EF662A"/>
<path id="Vector_7" d="M62.2973 76.9997L67.6938 137.539H137.081L134.753 163.506L112.412 169.546L90.1129 163.514L88.6219 146.842H68.527L71.4006 178.981L112.406 190.371L153.465 178.981L158.97 117.523H86.0036L84.172 97.0211H160.722H160.784L162.577 76.9997H62.2973Z" fill="white"/>
<g id="Group_5">
<path id="Vector_8" d="M112.437 76.9997H62.2973L67.6938 137.539H112.437V117.523H86.0036L84.172 97.0211H112.437V76.9997Z" fill="#EBEBEB"/>
<path id="Vector_9" d="M112.437 169.537L112.412 169.546L90.1129 163.514L88.6219 146.842H68.527L71.4006 178.981L112.406 190.371L112.437 190.362V169.537Z" fill="#EBEBEB"/>
</g>
</g>
</g>
</g>
</svg>
