<svg width="225" height="225" viewBox="0 0 225 225" fill="none" xmlns="http://www.w3.org/2000/svg">
<g id="icons8-javascript 1">
<path id="Vector" d="M195.003 18H30.0015C23.382 18 18 23.382 18 30.0015V194.999C18 201.618 23.382 207 30.0015 207H194.999C201.618 207 207 201.618 207 195.003V30.0015C207 23.382 201.618 18 195.003 18ZM121.5 162.819C121.5 180.81 110.952 189 95.553 189C81.639 189 71.595 179.672 67.5 171L81.6435 162.437C84.375 167.279 88.5285 171 94.5 171C100.211 171 103.5 168.768 103.5 160.083V103.5H121.5V162.819ZM160.546 189C144.598 189 135.54 180.959 130.5 171L144 162C147.681 168.008 151.682 173.763 160.151 173.763C167.265 173.763 171 170.208 171 165.294C171 159.408 167.139 157.32 159.309 153.896L155.016 152.055C142.628 146.777 134.392 140.162 134.392 126.185C134.392 113.306 144.202 103.504 159.538 103.504C170.455 103.504 178.304 107.302 183.96 117.252L170.591 125.838C167.648 120.56 164.47 118.481 159.538 118.481C154.507 118.481 151.321 121.671 151.321 125.838C151.321 130.991 154.512 133.074 161.878 136.265L166.171 138.105C180.765 144.356 189 150.732 189 165.073C189 180.531 176.854 189 160.546 189Z" fill="black"/>
</g>
</svg>
