<svg width="225" height="169" viewBox="0 0 225 169" fill="none" xmlns="http://www.w3.org/2000/svg">
<g id="sass-seeklogo.com 1">
<g id="Group">
<path id="Vector" d="M193.607 97.275C185.779 97.3161 178.975 99.2041 173.279 101.995C171.189 97.8497 169.098 94.1557 168.73 91.4468C168.32 88.2863 167.828 86.3573 168.32 82.5812C168.811 78.8051 171.025 73.4283 170.984 73.0179C170.943 72.6074 170.492 70.6783 165.984 70.6373C161.475 70.5962 157.582 71.4992 157.131 72.6895C156.68 73.8798 155.82 76.5887 155.246 79.3797C154.467 83.4842 146.23 98.137 141.516 105.812C140 102.816 138.689 100.189 138.402 98.0959C137.992 94.9355 137.5 93.0064 137.992 89.2304C138.484 85.4543 140.697 80.0775 140.656 79.667C140.615 79.2566 140.164 77.3275 135.656 77.2865C131.148 77.2454 127.254 78.1484 126.803 79.3387C126.352 80.529 125.861 83.32 124.918 86.0289C123.975 88.7378 113.033 113.2 110.164 119.521C108.689 122.764 107.418 125.349 106.516 127.114C106.516 127.114 106.475 127.237 106.352 127.443C105.574 128.961 105.123 129.782 105.123 129.782C105.123 129.782 105.123 129.782 105.123 129.823C104.508 130.931 103.852 131.957 103.525 131.957C103.279 131.957 102.828 129.002 103.607 124.98C105.246 116.484 109.139 103.268 109.098 102.816C109.098 102.57 109.836 100.271 106.557 99.081C103.361 97.8907 102.213 99.8608 101.926 99.8608C101.639 99.8608 101.434 100.559 101.434 100.559C101.434 100.559 105 85.7005 94.6311 85.7005C88.1557 85.7005 79.2213 92.8012 74.7951 99.2041C72.0082 100.723 66.0656 103.965 59.7131 107.454C57.2951 108.808 54.7951 110.163 52.459 111.435C52.2951 111.271 52.1311 111.066 51.9672 110.902C39.4262 97.4803 16.2295 87.999 17.2131 69.9806C17.582 63.4135 19.8361 46.1749 61.7623 25.2423C96.2705 8.20886 123.73 12.929 128.484 23.3953C135.287 38.3354 113.77 66.0814 78.1147 70.1037C64.5082 71.6223 57.3771 66.3687 55.5738 64.3985C53.6885 62.3463 53.4016 62.2232 52.7049 62.6336C51.5574 63.2493 52.2951 65.0963 52.7049 66.1634C53.7705 68.9545 58.1557 73.8798 65.5738 76.3014C72.1311 78.4357 88.0738 79.626 107.377 72.1559C128.975 63.7829 145.861 40.5107 140.902 21.0147C135.943 1.23133 103.156 -5.29472 72.1311 5.7462C53.6885 12.3133 33.6885 22.6565 19.3033 36.119C2.21312 52.1263 -0.4918 66.0403 0.614757 71.8686C4.59017 92.5549 33.0738 106.017 44.4672 115.991C43.8934 116.32 43.3607 116.607 42.9098 116.853C37.2131 119.685 15.4918 131.055 10.082 143.081C3.93443 156.707 11.0656 166.476 15.7787 167.789C30.4098 171.853 45.4508 164.547 53.5246 152.48C61.5984 140.413 60.6148 124.734 56.8852 117.551C56.8443 117.469 56.8033 117.387 56.7213 117.305C58.1967 116.443 59.7131 115.54 61.1885 114.678C64.0984 112.954 66.9672 111.353 69.4262 110.04C68.0328 113.857 67.0082 118.413 66.5164 124.98C65.9016 132.696 69.0574 142.711 73.1967 146.651C75.041 148.375 77.2131 148.416 78.6065 148.416C83.4426 148.416 85.6148 144.394 88.0328 139.633C90.9836 133.804 93.6475 127.032 93.6475 127.032C93.6475 127.032 90.3279 145.338 99.3443 145.338C102.623 145.338 105.943 141.069 107.418 138.894V138.935C107.418 138.935 107.5 138.812 107.664 138.525C107.992 137.991 108.197 137.663 108.197 137.663V137.581C109.508 135.282 112.459 130.069 116.844 121.409C122.5 110.245 127.951 96.29 127.951 96.29C127.951 96.29 128.443 99.6967 130.123 105.361C131.107 108.685 133.156 112.338 134.795 115.868C133.484 117.715 132.664 118.741 132.664 118.741C132.664 118.741 132.664 118.741 132.705 118.782C131.639 120.178 130.492 121.696 129.221 123.174C124.754 128.51 119.426 134.625 118.689 136.39C117.828 138.484 118.033 140.002 119.672 141.234C120.861 142.136 122.992 142.26 125.164 142.136C129.18 141.849 132.008 140.864 133.402 140.248C135.574 139.469 138.115 138.278 140.492 136.513C144.877 133.271 147.541 128.633 147.295 122.517C147.172 119.152 146.066 115.786 144.713 112.626C145.123 112.051 145.492 111.476 145.902 110.902C152.828 100.764 158.197 89.6408 158.197 89.6408C158.197 89.6408 158.689 93.0475 160.369 98.7116C161.189 101.585 162.869 104.704 164.344 107.741C157.828 113.036 153.811 119.193 152.377 123.215C149.795 130.685 151.803 134.051 155.615 134.831C157.336 135.2 159.795 134.379 161.598 133.599C163.893 132.86 166.598 131.588 169.18 129.7C173.566 126.458 177.787 121.943 177.541 115.827C177.418 113.036 176.68 110.286 175.656 107.618C181.189 105.32 188.32 104.047 197.418 105.115C216.926 107.413 220.779 119.603 220.041 124.734C219.303 129.864 215.205 132.655 213.852 133.517C212.5 134.379 212.049 134.666 212.172 135.282C212.336 136.185 212.992 136.144 214.139 135.98C215.738 135.693 224.385 131.834 224.754 122.394C225.369 110.327 213.893 97.1519 193.607 97.275ZM43.1148 148.088C36.6393 155.148 27.623 157.815 23.7295 155.558C19.5492 153.136 21.1885 142.711 29.1393 135.241C33.9754 130.685 40.2049 126.458 44.3443 123.872C45.2869 123.297 46.6803 122.476 48.3607 121.45C48.6475 121.286 48.8115 121.204 48.8115 121.204C49.1393 120.999 49.4672 120.793 49.7951 120.588C52.7049 131.26 49.918 140.659 43.1148 148.088ZM90.2459 115.991C87.9918 121.491 83.2787 135.569 80.4098 134.79C77.9508 134.133 76.4344 123.461 79.918 112.913C81.6803 107.618 85.4098 101.297 87.582 98.8347C91.1066 94.8945 95 93.5811 95.9426 95.1818C97.1311 97.275 91.6393 112.544 90.2459 115.991ZM129.139 134.625C128.197 135.118 127.295 135.446 126.885 135.2C126.598 135.036 127.295 134.379 127.295 134.379C127.295 134.379 132.172 129.125 134.098 126.745C135.205 125.349 136.516 123.708 137.91 121.861V122.394C137.91 128.674 131.844 132.902 129.139 134.625ZM159.139 127.771C158.443 127.278 158.566 125.637 160.902 120.506C161.803 118.495 163.934 115.129 167.582 111.887C167.992 113.2 168.279 114.473 168.238 115.663C168.197 123.584 162.541 126.54 159.139 127.771Z" fill="#CD6799"/>
</g>
</g>
</svg>
